<?xml version="1.0" encoding="UTF-8" standalone="no"?>
<!DOCTYPE svg PUBLIC "-//W3C//DTD SVG 1.0//EN" "http://www.w3.org/TR/2001/REC-SVG-20010904/DTD/svg10.dtd">
<!-- 由 Microsoft Visio 11.0, SVG Export, v1.0 生成 diagram.svg Page-1 -->
<svg xmlns="http://www.w3.org/2000/svg" xmlns:xlink="http://www.w3.org/1999/xlink" xmlns:ev="http://www.w3.org/2001/xml-events"
		xmlns:v="http://schemas.microsoft.com/visio/2003/SVGExtensions/" width="7.6378in" height="2.83465in"
		viewBox="0 0 549.921 204.094" xml:space="preserve" color-interpolation-filters="sRGB" class="st11">
	<v:documentProperties v:langID="2052" v:metric="true" v:viewMarkup="false">
		<v:userDefs>
			<v:ud v:nameU="msvNoAutoConnect" v:val="VT0(1):26"/>
		</v:userDefs>
	</v:documentProperties>

	<style type="text/css">
	<![CDATA[
		.st1 {stroke:#000000;stroke-linecap:round;stroke-linejoin:round;stroke-width:0.75}
		.st2 {fill:none;stroke:none;stroke-linecap:round;stroke-linejoin:round;stroke-width:0.75}
		.st3 {fill:#000000;font-family:宋体;font-size:0.833336em}
		.st4 {fill:#ffffff}
		.st5 {fill:#000000;font-family:宋体;font-size:0.75em}
		.st6 {visibility:visible}
		.st7 {fill:#cdcdcd;fill-opacity:0.5}
		.st8 {stroke:#cdcdcd;stroke-linecap:round;stroke-linejoin:round;stroke-opacity:0.5;stroke-width:0.75}
		.st9 {fill:url(#grad30-171)}
		.st10 {stroke:#404040;stroke-linecap:round;stroke-linejoin:round;stroke-width:0.75}
		.st11 {fill:none;fill-rule:evenodd;font-size:12px;overflow:visible;stroke-linecap:square;stroke-miterlimit:3}
	]]>
	</style>

	<defs id="Patterns_And_Gradients">
		<linearGradient id="grad30-171" v:fillPattern="30" v:foreground="#c9c9c9" v:background="#d8d8d8" x1="0" y1="1" x2="0"
				y2="0">
			<stop offset="0" style="stop-color:#c9c9c9;stop-opacity:1"/>
			<stop offset="1" style="stop-color:#d8d8d8;stop-opacity:1"/>
		</linearGradient>
	</defs>
	<g v:mID="0" v:index="1" v:groupContext="foregroundPage">
		<title>Page-1</title>
		<v:pageProperties v:drawingScale="0.0393701" v:pageScale="0.0393701" v:drawingUnits="24" v:shadowOffsetX="8.50394"
				v:shadowOffsetY="-8.50394"/>
		<g id="group1-1" transform="translate(76.5354,-167.244)" v:mID="1" v:groupContext="group">
			<title>CLK 8-CYC</title>
			<g id="group2-2" v:mID="2" v:groupContext="group">
				<title>CLK 4-CYC.19</title>
				<g id="shape3-3" v:mID="3" v:groupContext="shape">
					<title>CLK 1-CYC.17</title>
					<path d="M0 204.09 L0 189.92 L14.17 189.92 L14.17 204.09 L28.35 204.09" class="st1"/>
				</g>
				<g id="shape4-6" v:mID="4" v:groupContext="shape" transform="translate(28.3465,0)">
					<title>CLK 1-CYC.2</title>
					<path d="M0 204.09 L0 189.92 L14.17 189.92 L14.17 204.09 L28.35 204.09" class="st1"/>
				</g>
				<g id="shape5-9" v:mID="5" v:groupContext="shape" transform="translate(56.6929,0)">
					<title>CLK 1-CYC.3</title>
					<path d="M0 204.09 L0 189.92 L14.17 189.92 L14.17 204.09 L28.35 204.09" class="st1"/>
				</g>
				<g id="shape6-12" v:mID="6" v:groupContext="shape" transform="translate(85.0394,0)">
					<title>CLK 1-CYC.4</title>
					<path d="M0 204.09 L0 189.92 L14.17 189.92 L14.17 204.09 L28.35 204.09" class="st1"/>
				</g>
			</g>
			<g id="group7-15" transform="translate(113.386,0)" v:mID="7" v:groupContext="group">
				<title>CLK 4-CYC.6</title>
				<g id="shape8-16" v:mID="8" v:groupContext="shape">
					<title>CLK 1-CYC.17</title>
					<path d="M0 204.09 L0 189.92 L14.17 189.92 L14.17 204.09 L28.35 204.09" class="st1"/>
				</g>
				<g id="shape9-19" v:mID="9" v:groupContext="shape" transform="translate(28.3465,0)">
					<title>CLK 1-CYC.2</title>
					<path d="M0 204.09 L0 189.92 L14.17 189.92 L14.17 204.09 L28.35 204.09" class="st1"/>
				</g>
				<g id="shape10-22" v:mID="10" v:groupContext="shape" transform="translate(56.6929,0)">
					<title>CLK 1-CYC.3</title>
					<path d="M0 204.09 L0 189.92 L14.17 189.92 L14.17 204.09 L28.35 204.09" class="st1"/>
				</g>
				<g id="shape11-25" v:mID="11" v:groupContext="shape" transform="translate(85.0394,0)">
					<title>CLK 1-CYC.4</title>
					<path d="M0 204.09 L0 189.92 L14.17 189.92 L14.17 204.09 L28.35 204.09" class="st1"/>
				</g>
			</g>
		</g>
		<g id="shape12-28" v:mID="12" v:groupContext="shape" transform="translate(73.7008,-138.671)">
			<title>Rising</title>
			<v:custProps>
				<v:cp v:nameU="slew" v:lbl="Slew" v:type="2" v:invis="false" v:langID="1042" v:val="VT0(0.3):26"/>
				<v:cp v:nameU="start_level" v:lbl="Start Level" v:type="1" v:format="Low;High" v:invis="false" v:langID="1042"
						v:cal="0" v:val="VT4(Low)"/>
				<v:cp v:nameU="shape" v:lbl="Shape" v:type="1" v:format="Level;Pulse" v:invis="false" v:langID="1042"
						v:val="VT4(Level)"/>
				<v:cp v:nameU="pulse_type" v:lbl="Pulse Type" v:type="1" v:format="Two Point;Cycle" v:sortKey="" v:invis="false"
						v:ask="false" v:langID="1033" v:cal="0" v:val="VT4(Two Point)"/>
				<v:cp v:nameU="pulse_cycle" v:lbl="Pulse Cycle" v:type="2" v:invis="false" v:langID="1042" v:val="VT0(1):26"/>
				<v:cp v:nameU="period" v:lbl="Clock Period" v:type="2" v:invis="false" v:langID="1042"
						v:val="VT0(0.39370078740157):24"/>
				<v:cp v:nameU="Pulse" v:lbl="" v:prompt="" v:type="2" v:format="" v:sortKey="" v:invis="true" v:ask="false"
						v:langID="1033" v:cal="0" v:val="VT0(0):26"/>
			</v:custProps>
			<v:userDefs>
				<v:ud v:nameU="Pulse" v:prompt="" v:val="VT0(0):5"/>
				<v:ud v:nameU="start_low" v:prompt="" v:val="VT0(1):5"/>
				<v:ud v:nameU="right_x" v:prompt="" v:val="VT0(1.02362205):1"/>
			</v:userDefs>
			<path d="M0 204.09 L54.53 204.09 L58.85 189.69 L71.54 189.69 L75.86 189.69 L456.38 189.69" class="st1"/>
		</g>
		<g id="group13-31" transform="translate(303.307,-167.244)" v:mID="13" v:groupContext="group">
			<title>CLK 8-CYC.13</title>
			<g id="group14-32" v:mID="14" v:groupContext="group">
				<title>CLK 4-CYC.19</title>
				<g id="shape15-33" v:mID="15" v:groupContext="shape">
					<title>CLK 1-CYC.17</title>
					<path d="M0 204.09 L0 189.92 L14.17 189.92 L14.17 204.09 L28.35 204.09" class="st1"/>
				</g>
				<g id="shape16-36" v:mID="16" v:groupContext="shape" transform="translate(28.3465,0)">
					<title>CLK 1-CYC.2</title>
					<path d="M0 204.09 L0 189.92 L14.17 189.92 L14.17 204.09 L28.35 204.09" class="st1"/>
				</g>
				<g id="shape17-39" v:mID="17" v:groupContext="shape" transform="translate(56.6929,0)">
					<title>CLK 1-CYC.3</title>
					<path d="M0 204.09 L0 189.92 L14.17 189.92 L14.17 204.09 L28.35 204.09" class="st1"/>
				</g>
				<g id="shape18-42" v:mID="18" v:groupContext="shape" transform="translate(85.0394,0)">
					<title>CLK 1-CYC.4</title>
					<path d="M0 204.09 L0 189.92 L14.17 189.92 L14.17 204.09 L28.35 204.09" class="st1"/>
				</g>
			</g>
			<g id="group19-45" transform="translate(113.386,0)" v:mID="19" v:groupContext="group">
				<title>CLK 4-CYC.6</title>
				<g id="shape20-46" v:mID="20" v:groupContext="shape">
					<title>CLK 1-CYC.17</title>
					<path d="M0 204.09 L0 189.92 L14.17 189.92 L14.17 204.09 L28.35 204.09" class="st1"/>
				</g>
				<g id="shape21-49" v:mID="21" v:groupContext="shape" transform="translate(28.3465,0)">
					<title>CLK 1-CYC.2</title>
					<path d="M0 204.09 L0 189.92 L14.17 189.92 L14.17 204.09 L28.35 204.09" class="st1"/>
				</g>
				<g id="shape22-52" v:mID="22" v:groupContext="shape" transform="translate(56.6929,0)">
					<title>CLK 1-CYC.3</title>
					<path d="M0 204.09 L0 189.92 L14.17 189.92 L14.17 204.09 L28.35 204.09" class="st1"/>
				</g>
				<g id="shape23-55" v:mID="23" v:groupContext="shape" transform="translate(85.0394,0)">
					<title>CLK 1-CYC.4</title>
					<path d="M0 204.09 L0 189.92 L14.17 189.92 L14.17 204.09 L28.35 204.09" class="st1"/>
				</g>
			</g>
		</g>
		<g id="shape24-58" v:mID="24" v:groupContext="shape" transform="translate(38.2677,-167.244)">
			<title>工作表.24</title>
			<desc>clk</desc>
			<v:textBlock v:margins="rect(4,4,4,4)" v:tabSpace="42.5197"/>
			<v:textRect cx="17.0079" cy="198.425" width="34.02" height="11.3386"/>
			<rect x="0" y="192.756" width="34.0157" height="11.3386" class="st2"/>
			<text x="9.51" y="201.43" class="st3" v:langID="2052"><v:paragraph v:horizAlign="1"/><v:tabList/>clk</text>		</g>
		<g id="shape25-61" v:mID="25" v:groupContext="shape" transform="translate(17.0079,-134.646)">
			<title>工作表.25</title>
			<desc>rst_n</desc>
			<v:textBlock v:margins="rect(4,4,4,4)" v:tabSpace="42.5197"/>
			<v:textRect cx="29.7638" cy="198.425" width="59.53" height="11.3386"/>
			<rect x="0" y="192.756" width="59.5276" height="11.3386" class="st2"/>
			<text x="17.26" y="201.43" class="st3" v:langID="2052"><v:paragraph v:horizAlign="1"/><v:tabList/>rst_n</text>		</g>
		<g id="shape26-64" v:mID="26" v:groupContext="shape" transform="translate(133.228,-110.324)">
			<title>Bus</title>
			<desc>A</desc>
			<v:custProps>
				<v:cp v:nameU="slew" v:lbl="Slew" v:type="2" v:langID="1033" v:val="VT0(0.3):26"/>
				<v:cp v:nameU="left_shape" v:lbl="Left Shape" v:type="1" v:format="Convex;Concave;Open" v:langID="1033"
						v:val="VT4(Convex)"/>
				<v:cp v:nameU="right_shape" v:lbl="Right Shape" v:type="1" v:format="Convex;Concave;Open" v:langID="1033"
						v:val="VT4(Convex)"/>
			</v:custProps>
			<v:userDefs>
				<v:ud v:nameU="left_var" v:prompt="" v:val="VT0(1):26"/>
				<v:ud v:nameU="right_var" v:prompt="" v:val="VT0(1):26"/>
				<v:ud v:nameU="slew_width" v:prompt="" v:val="VT0(0.03):1"/>
			</v:userDefs>
			<v:textBlock v:margins="rect(0,0,0,0)" v:tabSpace="42.5197"/>
			<v:textRect cx="14.1732" cy="196.894" width="28.35" height="14.4"/>
			<path d="M2.16 204.09 L0 196.89 L2.16 189.69 L14.17 189.69 L14.17 204.09 L2.16 204.09 ZM14.17 189.69 L26.19 189.69 L28.35
						 196.89 L26.19 204.09 L14.17 204.09 L14.17 189.69 Z" class="st4"/>
			<path d="M2.16 189.69 L26.19 189.69" class="st1"/>
			<path d="M2.16 204.09 L26.19 204.09" class="st1"/>
			<path d="M2.16 189.69 L0 196.89 L2.16 204.09" class="st1"/>
			<path d="M26.19 189.69 L28.35 196.89 L26.19 204.09" class="st1"/>
			<text x="11.92" y="199.59" class="st5" v:langID="2052"><v:paragraph v:horizAlign="1"/><v:tabList/>A</text>		</g>
		<g id="shape27-71" v:mID="27" v:groupContext="shape" transform="translate(161.575,-110.551)">
			<title>Bus.27</title>
			<desc>B</desc>
			<v:custProps>
				<v:cp v:nameU="slew" v:lbl="Slew" v:type="2" v:langID="1033" v:val="VT0(0.3):26"/>
				<v:cp v:nameU="left_shape" v:lbl="Left Shape" v:type="1" v:format="Convex;Concave;Open" v:langID="1033"
						v:val="VT4(Convex)"/>
				<v:cp v:nameU="right_shape" v:lbl="Right Shape" v:type="1" v:format="Convex;Concave;Open" v:langID="1033"
						v:val="VT4(Convex)"/>
			</v:custProps>
			<v:userDefs>
				<v:ud v:nameU="left_var" v:prompt="" v:val="VT0(1):26"/>
				<v:ud v:nameU="right_var" v:prompt="" v:val="VT0(1):26"/>
				<v:ud v:nameU="slew_width" v:prompt="" v:val="VT0(0.03):1"/>
			</v:userDefs>
			<v:textBlock v:margins="rect(0,0,0,0)" v:tabSpace="42.5197"/>
			<v:textRect cx="14.1732" cy="196.894" width="28.35" height="14.4"/>
			<path d="M2.16 204.09 L0 196.89 L2.16 189.69 L14.17 189.69 L14.17 204.09 L2.16 204.09 ZM14.17 189.69 L26.19 189.69 L28.35
						 196.89 L26.19 204.09 L14.17 204.09 L14.17 189.69 Z" class="st4"/>
			<path d="M2.16 189.69 L26.19 189.69" class="st1"/>
			<path d="M2.16 204.09 L26.19 204.09" class="st1"/>
			<path d="M2.16 189.69 L0 196.89 L2.16 204.09" class="st1"/>
			<path d="M26.19 189.69 L28.35 196.89 L26.19 204.09" class="st1"/>
			<text x="11.92" y="199.59" class="st5" v:langID="2052"><v:paragraph v:horizAlign="1"/><v:tabList/>B</text>		</g>
		<g id="shape28-78" v:mID="28" v:groupContext="shape" transform="translate(189.921,-110.098)">
			<title>Bus.28</title>
			<desc>C</desc>
			<v:custProps>
				<v:cp v:nameU="slew" v:lbl="Slew" v:type="2" v:langID="1033" v:val="VT0(0.3):26"/>
				<v:cp v:nameU="left_shape" v:lbl="Left Shape" v:type="1" v:format="Convex;Concave;Open" v:langID="1033"
						v:val="VT4(Convex)"/>
				<v:cp v:nameU="right_shape" v:lbl="Right Shape" v:type="1" v:format="Convex;Concave;Open" v:langID="1033"
						v:val="VT4(Convex)"/>
			</v:custProps>
			<v:userDefs>
				<v:ud v:nameU="left_var" v:prompt="" v:val="VT0(1):26"/>
				<v:ud v:nameU="right_var" v:prompt="" v:val="VT0(1):26"/>
				<v:ud v:nameU="slew_width" v:prompt="" v:val="VT0(0.03):1"/>
			</v:userDefs>
			<v:textBlock v:margins="rect(0,0,0,0)" v:tabSpace="42.5197"/>
			<v:textRect cx="14.1732" cy="196.894" width="28.35" height="14.4"/>
			<path d="M2.16 204.09 L0 196.89 L2.16 189.69 L14.17 189.69 L14.17 204.09 L2.16 204.09 ZM14.17 189.69 L26.19 189.69 L28.35
						 196.89 L26.19 204.09 L14.17 204.09 L14.17 189.69 Z" class="st4"/>
			<path d="M2.16 189.69 L26.19 189.69" class="st1"/>
			<path d="M2.16 204.09 L26.19 204.09" class="st1"/>
			<path d="M2.16 189.69 L0 196.89 L2.16 204.09" class="st1"/>
			<path d="M26.19 189.69 L28.35 196.89 L26.19 204.09" class="st1"/>
			<text x="11.92" y="199.59" class="st5" v:langID="2052"><v:paragraph v:horizAlign="1"/><v:tabList/>C</text>		</g>
		<g id="shape29-85" v:mID="29" v:groupContext="shape" transform="translate(218.268,-110.324)">
			<title>Bus.29</title>
			<desc>D</desc>
			<v:custProps>
				<v:cp v:nameU="slew" v:lbl="Slew" v:type="2" v:langID="1033" v:val="VT0(0.3):26"/>
				<v:cp v:nameU="left_shape" v:lbl="Left Shape" v:type="1" v:format="Convex;Concave;Open" v:langID="1033"
						v:val="VT4(Convex)"/>
				<v:cp v:nameU="right_shape" v:lbl="Right Shape" v:type="1" v:format="Convex;Concave;Open" v:langID="1033"
						v:val="VT4(Convex)"/>
			</v:custProps>
			<v:userDefs>
				<v:ud v:nameU="left_var" v:prompt="" v:val="VT0(1):26"/>
				<v:ud v:nameU="right_var" v:prompt="" v:val="VT0(1):26"/>
				<v:ud v:nameU="slew_width" v:prompt="" v:val="VT0(0.03):1"/>
			</v:userDefs>
			<v:textBlock v:margins="rect(0,0,0,0)" v:tabSpace="42.5197"/>
			<v:textRect cx="14.1732" cy="196.894" width="28.35" height="14.4"/>
			<path d="M2.16 204.09 L0 196.89 L2.16 189.69 L14.17 189.69 L14.17 204.09 L2.16 204.09 ZM14.17 189.69 L26.19 189.69 L28.35
						 196.89 L26.19 204.09 L14.17 204.09 L14.17 189.69 Z" class="st4"/>
			<path d="M2.16 189.69 L26.19 189.69" class="st1"/>
			<path d="M2.16 204.09 L26.19 204.09" class="st1"/>
			<path d="M2.16 189.69 L0 196.89 L2.16 204.09" class="st1"/>
			<path d="M26.19 189.69 L28.35 196.89 L26.19 204.09" class="st1"/>
			<text x="11.92" y="199.59" class="st5" v:langID="2052"><v:paragraph v:horizAlign="1"/><v:tabList/>D</text>		</g>
		<g id="shape30-92" v:mID="30" v:groupContext="shape" transform="translate(246.614,-110.438)">
			<title>Bus.30</title>
			<desc>E</desc>
			<v:custProps>
				<v:cp v:nameU="slew" v:lbl="Slew" v:type="2" v:langID="1033" v:val="VT0(0.3):26"/>
				<v:cp v:nameU="left_shape" v:lbl="Left Shape" v:type="1" v:format="Convex;Concave;Open" v:langID="1033"
						v:val="VT4(Convex)"/>
				<v:cp v:nameU="right_shape" v:lbl="Right Shape" v:type="1" v:format="Convex;Concave;Open" v:langID="1033"
						v:val="VT4(Convex)"/>
			</v:custProps>
			<v:userDefs>
				<v:ud v:nameU="left_var" v:prompt="" v:val="VT0(1):26"/>
				<v:ud v:nameU="right_var" v:prompt="" v:val="VT0(1):26"/>
				<v:ud v:nameU="slew_width" v:prompt="" v:val="VT0(0.03):1"/>
			</v:userDefs>
			<v:textBlock v:margins="rect(0,0,0,0)" v:tabSpace="42.5197"/>
			<v:textRect cx="14.1732" cy="196.894" width="28.35" height="14.4"/>
			<path d="M2.16 204.09 L0 196.89 L2.16 189.69 L14.17 189.69 L14.17 204.09 L2.16 204.09 ZM14.17 189.69 L26.19 189.69 L28.35
						 196.89 L26.19 204.09 L14.17 204.09 L14.17 189.69 Z" class="st4"/>
			<path d="M2.16 189.69 L26.19 189.69" class="st1"/>
			<path d="M2.16 204.09 L26.19 204.09" class="st1"/>
			<path d="M2.16 189.69 L0 196.89 L2.16 204.09" class="st1"/>
			<path d="M26.19 189.69 L28.35 196.89 L26.19 204.09" class="st1"/>
			<text x="11.92" y="199.59" class="st5" v:langID="2052"><v:paragraph v:horizAlign="1"/><v:tabList/>E</text>		</g>
		<g id="shape31-99" v:mID="31" v:groupContext="shape" transform="translate(274.961,-110.665)">
			<title>Bus.31</title>
			<desc>F</desc>
			<v:custProps>
				<v:cp v:nameU="slew" v:lbl="Slew" v:type="2" v:langID="1033" v:val="VT0(0.3):26"/>
				<v:cp v:nameU="left_shape" v:lbl="Left Shape" v:type="1" v:format="Convex;Concave;Open" v:langID="1033"
						v:val="VT4(Convex)"/>
				<v:cp v:nameU="right_shape" v:lbl="Right Shape" v:type="1" v:format="Convex;Concave;Open" v:langID="1033"
						v:val="VT4(Convex)"/>
			</v:custProps>
			<v:userDefs>
				<v:ud v:nameU="left_var" v:prompt="" v:val="VT0(1):26"/>
				<v:ud v:nameU="right_var" v:prompt="" v:val="VT0(1):26"/>
				<v:ud v:nameU="slew_width" v:prompt="" v:val="VT0(0.03):1"/>
			</v:userDefs>
			<v:textBlock v:margins="rect(0,0,0,0)" v:tabSpace="42.5197"/>
			<v:textRect cx="14.1732" cy="196.894" width="28.35" height="14.4"/>
			<path d="M2.16 204.09 L0 196.89 L2.16 189.69 L14.17 189.69 L14.17 204.09 L2.16 204.09 ZM14.17 189.69 L26.19 189.69 L28.35
						 196.89 L26.19 204.09 L14.17 204.09 L14.17 189.69 Z" class="st4"/>
			<path d="M2.16 189.69 L26.19 189.69" class="st1"/>
			<path d="M2.16 204.09 L26.19 204.09" class="st1"/>
			<path d="M2.16 189.69 L0 196.89 L2.16 204.09" class="st1"/>
			<path d="M26.19 189.69 L28.35 196.89 L26.19 204.09" class="st1"/>
			<text x="11.92" y="199.59" class="st5" v:langID="2052"><v:paragraph v:horizAlign="1"/><v:tabList/>F</text>		</g>
		<g id="shape32-106" v:mID="32" v:groupContext="shape" transform="translate(303.307,-110.211)">
			<title>Bus.32</title>
			<desc>G</desc>
			<v:custProps>
				<v:cp v:nameU="slew" v:lbl="Slew" v:type="2" v:langID="1033" v:val="VT0(0.3):26"/>
				<v:cp v:nameU="left_shape" v:lbl="Left Shape" v:type="1" v:format="Convex;Concave;Open" v:langID="1033"
						v:val="VT4(Convex)"/>
				<v:cp v:nameU="right_shape" v:lbl="Right Shape" v:type="1" v:format="Convex;Concave;Open" v:langID="1033"
						v:val="VT4(Convex)"/>
			</v:custProps>
			<v:userDefs>
				<v:ud v:nameU="left_var" v:prompt="" v:val="VT0(1):26"/>
				<v:ud v:nameU="right_var" v:prompt="" v:val="VT0(1):26"/>
				<v:ud v:nameU="slew_width" v:prompt="" v:val="VT0(0.03):1"/>
			</v:userDefs>
			<v:textBlock v:margins="rect(0,0,0,0)" v:tabSpace="42.5197"/>
			<v:textRect cx="14.1732" cy="196.894" width="28.35" height="14.4"/>
			<path d="M2.16 204.09 L0 196.89 L2.16 189.69 L14.17 189.69 L14.17 204.09 L2.16 204.09 ZM14.17 189.69 L26.19 189.69 L28.35
						 196.89 L26.19 204.09 L14.17 204.09 L14.17 189.69 Z" class="st4"/>
			<path d="M2.16 189.69 L26.19 189.69" class="st1"/>
			<path d="M2.16 204.09 L26.19 204.09" class="st1"/>
			<path d="M2.16 189.69 L0 196.89 L2.16 204.09" class="st1"/>
			<path d="M26.19 189.69 L28.35 196.89 L26.19 204.09" class="st1"/>
			<text x="11.92" y="199.59" class="st5" v:langID="2052"><v:paragraph v:horizAlign="1"/><v:tabList/>G</text>		</g>
		<g id="shape33-113" v:mID="33" v:groupContext="shape" transform="translate(331.654,-110.438)">
			<title>Bus.33</title>
			<desc>H</desc>
			<v:custProps>
				<v:cp v:nameU="slew" v:lbl="Slew" v:type="2" v:langID="1033" v:val="VT0(0.3):26"/>
				<v:cp v:nameU="left_shape" v:lbl="Left Shape" v:type="1" v:format="Convex;Concave;Open" v:langID="1033"
						v:val="VT4(Convex)"/>
				<v:cp v:nameU="right_shape" v:lbl="Right Shape" v:type="1" v:format="Convex;Concave;Open" v:langID="1033"
						v:val="VT4(Convex)"/>
			</v:custProps>
			<v:userDefs>
				<v:ud v:nameU="left_var" v:prompt="" v:val="VT0(1):26"/>
				<v:ud v:nameU="right_var" v:prompt="" v:val="VT0(1):26"/>
				<v:ud v:nameU="slew_width" v:prompt="" v:val="VT0(0.03):1"/>
			</v:userDefs>
			<v:textBlock v:margins="rect(0,0,0,0)" v:tabSpace="42.5197"/>
			<v:textRect cx="14.1732" cy="196.894" width="28.35" height="14.4"/>
			<path d="M2.16 204.09 L0 196.89 L2.16 189.69 L14.17 189.69 L14.17 204.09 L2.16 204.09 ZM14.17 189.69 L26.19 189.69 L28.35
						 196.89 L26.19 204.09 L14.17 204.09 L14.17 189.69 Z" class="st4"/>
			<path d="M2.16 189.69 L26.19 189.69" class="st1"/>
			<path d="M2.16 204.09 L26.19 204.09" class="st1"/>
			<path d="M2.16 189.69 L0 196.89 L2.16 204.09" class="st1"/>
			<path d="M26.19 189.69 L28.35 196.89 L26.19 204.09" class="st1"/>
			<text x="11.92" y="199.59" class="st5" v:langID="2052"><v:paragraph v:horizAlign="1"/><v:tabList/>H</text>		</g>
		<g id="shape34-120" v:mID="34" v:groupContext="shape" transform="translate(360,-109.984)">
			<title>Bus.34</title>
			<desc>I</desc>
			<v:custProps>
				<v:cp v:nameU="slew" v:lbl="Slew" v:type="2" v:langID="1033" v:val="VT0(0.3):26"/>
				<v:cp v:nameU="left_shape" v:lbl="Left Shape" v:type="1" v:format="Convex;Concave;Open" v:langID="1033"
						v:val="VT4(Convex)"/>
				<v:cp v:nameU="right_shape" v:lbl="Right Shape" v:type="1" v:format="Convex;Concave;Open" v:langID="1033"
						v:val="VT4(Convex)"/>
			</v:custProps>
			<v:userDefs>
				<v:ud v:nameU="left_var" v:prompt="" v:val="VT0(1):26"/>
				<v:ud v:nameU="right_var" v:prompt="" v:val="VT0(1):26"/>
				<v:ud v:nameU="slew_width" v:prompt="" v:val="VT0(0.03):1"/>
			</v:userDefs>
			<v:textBlock v:margins="rect(0,0,0,0)" v:tabSpace="42.5197"/>
			<v:textRect cx="14.1732" cy="196.894" width="28.35" height="14.4"/>
			<path d="M2.16 204.09 L0 196.89 L2.16 189.69 L14.17 189.69 L14.17 204.09 L2.16 204.09 ZM14.17 189.69 L26.19 189.69 L28.35
						 196.89 L26.19 204.09 L14.17 204.09 L14.17 189.69 Z" class="st4"/>
			<path d="M2.16 189.69 L26.19 189.69" class="st1"/>
			<path d="M2.16 204.09 L26.19 204.09" class="st1"/>
			<path d="M2.16 189.69 L0 196.89 L2.16 204.09" class="st1"/>
			<path d="M26.19 189.69 L28.35 196.89 L26.19 204.09" class="st1"/>
			<text x="11.92" y="199.59" class="st5" v:langID="2052"><v:paragraph v:horizAlign="1"/><v:tabList/>I</text>		</g>
		<g id="shape35-127" v:mID="35" v:groupContext="shape" transform="translate(388.346,-110.608)">
			<title>Bus.35</title>
			<desc>J</desc>
			<v:custProps>
				<v:cp v:nameU="slew" v:lbl="Slew" v:type="2" v:langID="1033" v:val="VT0(0.3):26"/>
				<v:cp v:nameU="left_shape" v:lbl="Left Shape" v:type="1" v:format="Convex;Concave;Open" v:langID="1033"
						v:val="VT4(Convex)"/>
				<v:cp v:nameU="right_shape" v:lbl="Right Shape" v:type="1" v:format="Convex;Concave;Open" v:langID="1033"
						v:val="VT4(Convex)"/>
			</v:custProps>
			<v:userDefs>
				<v:ud v:nameU="left_var" v:prompt="" v:val="VT0(1):26"/>
				<v:ud v:nameU="right_var" v:prompt="" v:val="VT0(1):26"/>
				<v:ud v:nameU="slew_width" v:prompt="" v:val="VT0(0.03):1"/>
			</v:userDefs>
			<v:textBlock v:margins="rect(0,0,0,0)" v:tabSpace="42.5197"/>
			<v:textRect cx="14.1732" cy="196.894" width="28.35" height="14.4"/>
			<path d="M2.16 204.09 L0 196.89 L2.16 189.69 L14.17 189.69 L14.17 204.09 L2.16 204.09 ZM14.17 189.69 L26.19 189.69 L28.35
						 196.89 L26.19 204.09 L14.17 204.09 L14.17 189.69 Z" class="st4"/>
			<path d="M2.16 189.69 L26.19 189.69" class="st1"/>
			<path d="M2.16 204.09 L26.19 204.09" class="st1"/>
			<path d="M2.16 189.69 L0 196.89 L2.16 204.09" class="st1"/>
			<path d="M26.19 189.69 L28.35 196.89 L26.19 204.09" class="st1"/>
			<text x="11.92" y="199.59" class="st5" v:langID="2052"><v:paragraph v:horizAlign="1"/><v:tabList/>J</text>		</g>
		<g id="shape36-134" v:mID="36" v:groupContext="shape" transform="translate(416.693,-110.154)">
			<title>Bus.36</title>
			<desc>K</desc>
			<v:custProps>
				<v:cp v:nameU="slew" v:lbl="Slew" v:type="2" v:langID="1033" v:val="VT0(0.3):26"/>
				<v:cp v:nameU="left_shape" v:lbl="Left Shape" v:type="1" v:format="Convex;Concave;Open" v:langID="1033"
						v:val="VT4(Convex)"/>
				<v:cp v:nameU="right_shape" v:lbl="Right Shape" v:type="1" v:format="Convex;Concave;Open" v:langID="1033"
						v:val="VT4(Convex)"/>
			</v:custProps>
			<v:userDefs>
				<v:ud v:nameU="left_var" v:prompt="" v:val="VT0(1):26"/>
				<v:ud v:nameU="right_var" v:prompt="" v:val="VT0(1):26"/>
				<v:ud v:nameU="slew_width" v:prompt="" v:val="VT0(0.03):1"/>
			</v:userDefs>
			<v:textBlock v:margins="rect(0,0,0,0)" v:tabSpace="42.5197"/>
			<v:textRect cx="14.1732" cy="196.894" width="28.35" height="14.4"/>
			<path d="M2.16 204.09 L0 196.89 L2.16 189.69 L14.17 189.69 L14.17 204.09 L2.16 204.09 ZM14.17 189.69 L26.19 189.69 L28.35
						 196.89 L26.19 204.09 L14.17 204.09 L14.17 189.69 Z" class="st4"/>
			<path d="M2.16 189.69 L26.19 189.69" class="st1"/>
			<path d="M2.16 204.09 L26.19 204.09" class="st1"/>
			<path d="M2.16 189.69 L0 196.89 L2.16 204.09" class="st1"/>
			<path d="M26.19 189.69 L28.35 196.89 L26.19 204.09" class="st1"/>
			<text x="11.92" y="199.59" class="st5" v:langID="2052"><v:paragraph v:horizAlign="1"/><v:tabList/>K</text>		</g>
		<g id="shape37-141" v:mID="37" v:groupContext="shape" transform="translate(445.039,-110.381)">
			<title>Bus.37</title>
			<desc>L</desc>
			<v:custProps>
				<v:cp v:nameU="slew" v:lbl="Slew" v:type="2" v:langID="1033" v:val="VT0(0.3):26"/>
				<v:cp v:nameU="left_shape" v:lbl="Left Shape" v:type="1" v:format="Convex;Concave;Open" v:langID="1033"
						v:val="VT4(Convex)"/>
				<v:cp v:nameU="right_shape" v:lbl="Right Shape" v:type="1" v:format="Convex;Concave;Open" v:langID="1033"
						v:val="VT4(Convex)"/>
			</v:custProps>
			<v:userDefs>
				<v:ud v:nameU="left_var" v:prompt="" v:val="VT0(1):26"/>
				<v:ud v:nameU="right_var" v:prompt="" v:val="VT0(1):26"/>
				<v:ud v:nameU="slew_width" v:prompt="" v:val="VT0(0.03):1"/>
			</v:userDefs>
			<v:textBlock v:margins="rect(0,0,0,0)" v:tabSpace="42.5197"/>
			<v:textRect cx="14.1732" cy="196.894" width="28.35" height="14.4"/>
			<path d="M2.16 204.09 L0 196.89 L2.16 189.69 L14.17 189.69 L14.17 204.09 L2.16 204.09 ZM14.17 189.69 L26.19 189.69 L28.35
						 196.89 L26.19 204.09 L14.17 204.09 L14.17 189.69 Z" class="st4"/>
			<path d="M2.16 189.69 L26.19 189.69" class="st1"/>
			<path d="M2.16 204.09 L26.19 204.09" class="st1"/>
			<path d="M2.16 189.69 L0 196.89 L2.16 204.09" class="st1"/>
			<path d="M26.19 189.69 L28.35 196.89 L26.19 204.09" class="st1"/>
			<text x="11.92" y="199.59" class="st5" v:langID="2052"><v:paragraph v:horizAlign="1"/><v:tabList/>L</text>		</g>
		<g id="shape38-148" v:mID="38" v:groupContext="shape" transform="translate(473.386,-110.494)">
			<title>Bus.38</title>
			<desc>M</desc>
			<v:custProps>
				<v:cp v:nameU="slew" v:lbl="Slew" v:type="2" v:langID="1033" v:val="VT0(0.3):26"/>
				<v:cp v:nameU="left_shape" v:lbl="Left Shape" v:type="1" v:format="Convex;Concave;Open" v:langID="1033"
						v:val="VT4(Convex)"/>
				<v:cp v:nameU="right_shape" v:lbl="Right Shape" v:type="1" v:format="Convex;Concave;Open" v:langID="1033"
						v:val="VT4(Convex)"/>
			</v:custProps>
			<v:userDefs>
				<v:ud v:nameU="left_var" v:prompt="" v:val="VT0(1):26"/>
				<v:ud v:nameU="right_var" v:prompt="" v:val="VT0(1):26"/>
				<v:ud v:nameU="slew_width" v:prompt="" v:val="VT0(0.03):1"/>
			</v:userDefs>
			<v:textBlock v:margins="rect(0,0,0,0)" v:tabSpace="42.5197"/>
			<v:textRect cx="14.1732" cy="196.894" width="28.35" height="14.4"/>
			<path d="M2.16 204.09 L0 196.89 L2.16 189.69 L14.17 189.69 L14.17 204.09 L2.16 204.09 ZM14.17 189.69 L26.19 189.69 L28.35
						 196.89 L26.19 204.09 L14.17 204.09 L14.17 189.69 Z" class="st4"/>
			<path d="M2.16 189.69 L26.19 189.69" class="st1"/>
			<path d="M2.16 204.09 L26.19 204.09" class="st1"/>
			<path d="M2.16 189.69 L0 196.89 L2.16 204.09" class="st1"/>
			<path d="M26.19 189.69 L28.35 196.89 L26.19 204.09" class="st1"/>
			<text x="11.92" y="199.59" class="st5" v:langID="2052"><v:paragraph v:horizAlign="1"/><v:tabList/>M</text>		</g>
		<g id="shape39-155" v:mID="39" v:groupContext="shape" transform="translate(501.732,-110.721)">
			<title>Bus.39</title>
			<desc>N</desc>
			<v:custProps>
				<v:cp v:nameU="slew" v:lbl="Slew" v:type="2" v:langID="1033" v:val="VT0(0.3):26"/>
				<v:cp v:nameU="left_shape" v:lbl="Left Shape" v:type="1" v:format="Convex;Concave;Open" v:langID="1033"
						v:val="VT4(Convex)"/>
				<v:cp v:nameU="right_shape" v:lbl="Right Shape" v:type="1" v:format="Convex;Concave;Open" v:langID="1033"
						v:val="VT4(Convex)"/>
			</v:custProps>
			<v:userDefs>
				<v:ud v:nameU="left_var" v:prompt="" v:val="VT0(1):26"/>
				<v:ud v:nameU="right_var" v:prompt="" v:val="VT0(1):26"/>
				<v:ud v:nameU="slew_width" v:prompt="" v:val="VT0(0.03):1"/>
			</v:userDefs>
			<v:textBlock v:margins="rect(0,0,0,0)" v:tabSpace="42.5197"/>
			<v:textRect cx="14.1732" cy="196.894" width="28.35" height="14.4"/>
			<path d="M2.16 204.09 L0 196.89 L2.16 189.69 L14.17 189.69 L14.17 204.09 L2.16 204.09 ZM14.17 189.69 L26.19 189.69 L28.35
						 196.89 L26.19 204.09 L14.17 204.09 L14.17 189.69 Z" class="st4"/>
			<path d="M2.16 189.69 L26.19 189.69" class="st1"/>
			<path d="M2.16 204.09 L26.19 204.09" class="st1"/>
			<path d="M2.16 189.69 L0 196.89 L2.16 204.09" class="st1"/>
			<path d="M26.19 189.69 L28.35 196.89 L26.19 204.09" class="st1"/>
			<text x="11.92" y="199.59" class="st5" v:langID="2052"><v:paragraph v:horizAlign="1"/><v:tabList/>N</text>		</g>
		<g id="shape40-162" v:mID="40" v:groupContext="shape" transform="translate(75.1181,-110.324)">
			<title>Bus X (Right filtered)</title>
			<v:custProps>
				<v:cp v:nameU="slew" v:lbl="Slew" v:type="2" v:langID="1033" v:val="VT0(0.3):26"/>
				<v:cp v:nameU="left_shape" v:lbl="Left Shape" v:type="1" v:format="Convex;Concave;Open" v:langID="1033"
						v:val="VT4(Concave)"/>
				<v:cp v:nameU="right_shape" v:lbl="Right Shape" v:type="1" v:format="Convex;Concave;Open" v:langID="1033"
						v:val="VT4(Convex)"/>
			</v:custProps>
			<v:userDefs>
				<v:ud v:nameU="left_var" v:prompt="" v:val="VT0(-1):26"/>
				<v:ud v:nameU="right_var" v:prompt="" v:val="VT0(1):26"/>
				<v:ud v:nameU="slew_width" v:prompt="" v:val="VT0(0.03):1"/>
				<v:ud v:nameU="msvThemeColors" v:val="VT0(36):26"/>
				<v:ud v:nameU="msvThemeEffects" v:val="VT0(16):26"/>
			</v:userDefs>
			<g id="shadow40-163" v:groupContext="shadow" v:shadowOffsetX="1.44" v:shadowOffsetY="-1.44" v:shadowType="1"
					transform="matrix(1,0,0,1,1.44,1.44)" class="st6">
				<path d="M-2.16 204.09 L0 196.89 L-2.16 189.69 L29.06 189.69 L29.06 204.09 L-2.16 204.09 ZM29.06 189.69 L55.95 189.69
							 L58.11 196.89 L55.95 204.09 L29.06 204.09 L29.06 189.69 Z" class="st7"/>
				<path d="M-2.16 189.69 L55.95 189.69" class="st8"/>
				<path d="M-2.16 204.09 L55.95 204.09" class="st8"/>
				<path d="M-2.16 189.69 L0 196.89 L-2.16 204.09" class="st8"/>
				<path d="M55.95 189.69 L58.11 196.89 L55.95 204.09" class="st8"/>
			</g>
			<path d="M-2.16 204.09 L0 196.89 L-2.16 189.69 L29.06 189.69 L29.06 204.09 L-2.16 204.09 ZM29.06 189.69 L55.95 189.69
						 L58.11 196.89 L55.95 204.09 L29.06 204.09 L29.06 189.69 Z" class="st9"/>
			<path d="M-2.16 189.69 L55.95 189.69" class="st10"/>
			<path d="M-2.16 204.09 L55.95 204.09" class="st10"/>
			<path d="M-2.16 189.69 L0 196.89 L-2.16 204.09" class="st10"/>
			<path d="M55.95 189.69 L58.11 196.89 L55.95 204.09" class="st10"/>
		</g>
		<g id="shape41-176" v:mID="41" v:groupContext="shape" transform="translate(12.7559,-107.717)">
			<title>工作表.41</title>
			<desc>rnd_data</desc>
			<v:textBlock v:margins="rect(4,4,4,4)" v:tabSpace="42.5197"/>
			<v:textRect cx="29.7638" cy="198.425" width="59.53" height="11.3386"/>
			<rect x="0" y="192.756" width="59.5276" height="11.3386" class="st2"/>
			<text x="9.76" y="201.43" class="st3" v:langID="2052"><v:paragraph v:horizAlign="1"/><v:tabList/>rnd_data</text>		</g>
		<g id="shape42-179" v:mID="42" v:groupContext="shape" transform="translate(76.5354,-77.5009)">
			<title>High Pulse</title>
			<v:custProps>
				<v:cp v:nameU="slew" v:lbl="Slew" v:type="2" v:invis="false" v:langID="1042" v:val="VT0(0.3):26"/>
				<v:cp v:nameU="start_level" v:lbl="Start Level" v:type="1" v:format="Low;High" v:invis="false" v:langID="1042"
						v:cal="0" v:val="VT4(Low)"/>
				<v:cp v:nameU="shape" v:lbl="Shape" v:type="1" v:format="Level;Pulse" v:invis="false" v:langID="1042"
						v:val="VT4(Pulse)"/>
				<v:cp v:nameU="pulse_type" v:lbl="Pulse Type" v:type="1" v:format="Two Point;Cycle" v:sortKey="" v:invis="false"
						v:ask="false" v:langID="1033" v:cal="0" v:val="VT4(Two Point)"/>
				<v:cp v:nameU="pulse_cycle" v:lbl="Pulse Cycle" v:type="2" v:invis="false" v:langID="1042" v:val="VT0(1):26"/>
				<v:cp v:nameU="period" v:lbl="Clock Period" v:type="2" v:invis="false" v:langID="1042"
						v:val="VT0(0.39370078740157):24"/>
				<v:cp v:nameU="Pulse" v:lbl="" v:prompt="" v:type="2" v:format="" v:sortKey="" v:invis="true" v:ask="false"
						v:langID="1033" v:cal="0" v:val="VT0(1):26"/>
			</v:custProps>
			<v:userDefs>
				<v:ud v:nameU="Pulse" v:prompt="" v:val="VT0(1):5"/>
				<v:ud v:nameU="start_low" v:prompt="" v:val="VT0(1):5"/>
				<v:ud v:nameU="right_x" v:prompt="" v:val="VT0(3.8976378):1"/>
			</v:userDefs>
			<path d="M0 204.09 L252.83 204.09 L257.41 188.85 L278.34 188.85 L282.92 204.09 L445.04 204.09" class="st1"/>
		</g>
		<g id="shape43-182" v:mID="43" v:groupContext="shape" transform="translate(77.9528,-48.9843)">
			<title>Bus X (Right filtered).43</title>
			<v:custProps>
				<v:cp v:nameU="slew" v:lbl="Slew" v:type="2" v:langID="1033" v:val="VT0(0.3):26"/>
				<v:cp v:nameU="left_shape" v:lbl="Left Shape" v:type="1" v:format="Convex;Concave;Open" v:langID="1033"
						v:val="VT4(Concave)"/>
				<v:cp v:nameU="right_shape" v:lbl="Right Shape" v:type="1" v:format="Convex;Concave;Open" v:langID="1033"
						v:val="VT4(Convex)"/>
			</v:custProps>
			<v:userDefs>
				<v:ud v:nameU="left_var" v:prompt="" v:val="VT0(-1):26"/>
				<v:ud v:nameU="right_var" v:prompt="" v:val="VT0(1):26"/>
				<v:ud v:nameU="slew_width" v:prompt="" v:val="VT0(0.03):1"/>
				<v:ud v:nameU="msvThemeColors" v:val="VT0(36):26"/>
				<v:ud v:nameU="msvThemeEffects" v:val="VT0(16):26"/>
			</v:userDefs>
			<g id="shadow43-183" v:groupContext="shadow" v:shadowOffsetX="1.44" v:shadowOffsetY="-1.44" v:shadowType="1"
					transform="matrix(1,0,0,1,1.44,1.44)" class="st6">
				<path d="M-2.16 204.09 L0 196.89 L-2.16 189.69 L126.14 189.69 L126.14 204.09 L-2.16 204.09 ZM126.14 189.69 L250.12
							 189.69 L252.28 196.89 L250.12 204.09 L126.14 204.09 L126.14 189.69 Z" class="st7"/>
				<path d="M-2.16 189.69 L250.12 189.69" class="st8"/>
				<path d="M-2.16 204.09 L250.12 204.09" class="st8"/>
				<path d="M-2.16 189.69 L0 196.89 L-2.16 204.09" class="st8"/>
				<path d="M250.12 189.69 L252.28 196.89 L250.12 204.09" class="st8"/>
			</g>
			<path d="M-2.16 204.09 L0 196.89 L-2.16 189.69 L126.14 189.69 L126.14 204.09 L-2.16 204.09 ZM126.14 189.69 L250.12 189.69
						 L252.28 196.89 L250.12 204.09 L126.14 204.09 L126.14 189.69 Z" class="st9"/>
			<path d="M-2.16 189.69 L250.12 189.69" class="st10"/>
			<path d="M-2.16 204.09 L250.12 204.09" class="st10"/>
			<path d="M-2.16 189.69 L0 196.89 L-2.16 204.09" class="st10"/>
			<path d="M250.12 189.69 L252.28 196.89 L250.12 204.09" class="st10"/>
		</g>
		<g id="shape44-195" v:mID="44" v:groupContext="shape" transform="translate(330.236,-49.0977)">
			<title>Bus.44</title>
			<desc>E</desc>
			<v:custProps>
				<v:cp v:nameU="slew" v:lbl="Slew" v:type="2" v:langID="1033" v:val="VT0(0.3):26"/>
				<v:cp v:nameU="left_shape" v:lbl="Left Shape" v:type="1" v:format="Convex;Concave;Open" v:langID="1033"
						v:val="VT4(Convex)"/>
				<v:cp v:nameU="right_shape" v:lbl="Right Shape" v:type="1" v:format="Convex;Concave;Open" v:langID="1033"
						v:val="VT4(Convex)"/>
			</v:custProps>
			<v:userDefs>
				<v:ud v:nameU="left_var" v:prompt="" v:val="VT0(1):26"/>
				<v:ud v:nameU="right_var" v:prompt="" v:val="VT0(1):26"/>
				<v:ud v:nameU="slew_width" v:prompt="" v:val="VT0(0.03):1"/>
			</v:userDefs>
			<v:textBlock v:margins="rect(0,0,0,0)" v:tabSpace="42.5197"/>
			<v:textRect cx="14.1732" cy="196.894" width="28.35" height="14.4"/>
			<path d="M2.16 204.09 L0 196.89 L2.16 189.69 L14.17 189.69 L14.17 204.09 L2.16 204.09 ZM14.17 189.69 L26.19 189.69 L28.35
						 196.89 L26.19 204.09 L14.17 204.09 L14.17 189.69 Z" class="st4"/>
			<path d="M2.16 189.69 L26.19 189.69" class="st1"/>
			<path d="M2.16 204.09 L26.19 204.09" class="st1"/>
			<path d="M2.16 189.69 L0 196.89 L2.16 204.09" class="st1"/>
			<path d="M26.19 189.69 L28.35 196.89 L26.19 204.09" class="st1"/>
			<text x="11.92" y="199.59" class="st5" v:langID="2052"><v:paragraph v:horizAlign="1"/><v:tabList/>E</text>		</g>
		<g id="shape45-202" v:mID="45" v:groupContext="shape" transform="translate(19.8425,-75.1181)">
			<title>工作表.45</title>
			<desc>enable</desc>
			<v:textBlock v:margins="rect(4,4,4,4)" v:tabSpace="42.5197"/>
			<v:textRect cx="29.7638" cy="198.425" width="59.53" height="11.3386"/>
			<rect x="0" y="192.756" width="59.5276" height="11.3386" class="st2"/>
			<text x="14.76" y="201.43" class="st3" v:langID="2052"><v:paragraph v:horizAlign="1"/><v:tabList/>enable</text>		</g>
		<g id="shape46-205" v:mID="46" v:groupContext="shape" transform="translate(2.83465,-49.6063)">
			<title>工作表.46</title>
			<desc>capture_data</desc>
			<v:textBlock v:margins="rect(4,4,4,4)" v:tabSpace="42.5197"/>
			<v:textRect cx="36.8504" cy="198.425" width="73.71" height="11.3386"/>
			<rect x="0" y="192.756" width="73.7008" height="11.3386" class="st2"/>
			<text x="6.85" y="201.43" class="st3" v:langID="2052"><v:paragraph v:horizAlign="1"/><v:tabList/>capture_data</text>		</g>
		<g id="shape47-208" v:mID="47" v:groupContext="shape" transform="translate(358.583,-49.4929)">
			<title>Bus X (Left Filtered)</title>
			<v:custProps>
				<v:cp v:nameU="slew" v:lbl="Slew" v:type="2" v:langID="1033" v:val="VT0(0.3):26"/>
				<v:cp v:nameU="left_shape" v:lbl="Left Shape" v:type="1" v:format="Convex;Concave;Open" v:langID="1033"
						v:val="VT4(Convex)"/>
				<v:cp v:nameU="right_shape" v:lbl="Right Shape" v:type="1" v:format="Convex;Concave;Open" v:langID="1033"
						v:val="VT4(Concave)"/>
			</v:custProps>
			<v:userDefs>
				<v:ud v:nameU="left_var" v:prompt="" v:val="VT0(1):26"/>
				<v:ud v:nameU="right_var" v:prompt="" v:val="VT0(-1):26"/>
				<v:ud v:nameU="slew_width" v:prompt="" v:val="VT0(0.03):1"/>
				<v:ud v:nameU="msvThemeColors" v:val="VT0(36):26"/>
				<v:ud v:nameU="msvThemeEffects" v:val="VT0(16):26"/>
			</v:userDefs>
			<g id="shadow47-209" v:groupContext="shadow" v:shadowOffsetX="1.44" v:shadowOffsetY="-1.44" v:shadowType="1"
					transform="matrix(1,0,0,1,1.44,1.44)" class="st6">
				<path d="M2.16 204.09 L0 196.89 L2.16 189.69 L79.37 189.69 L79.37 204.09 L2.16 204.09 ZM79.37 189.69 L160.9 189.69
							 L158.74 196.89 L160.9 204.09 L79.37 204.09 L79.37 189.69 Z" class="st7"/>
				<path d="M2.16 189.69 L160.9 189.69" class="st8"/>
				<path d="M2.16 204.09 L160.9 204.09" class="st8"/>
				<path d="M2.16 189.69 L0 196.89 L2.16 204.09" class="st8"/>
				<path d="M160.9 189.69 L158.74 196.89 L160.9 204.09" class="st8"/>
			</g>
			<path d="M2.16 204.09 L0 196.89 L2.16 189.69 L79.37 189.69 L79.37 204.09 L2.16 204.09 ZM79.37 189.69 L160.9 189.69 L158.74
						 196.89 L160.9 204.09 L79.37 204.09 L79.37 189.69 Z" class="st9"/>
			<path d="M2.16 189.69 L160.9 189.69" class="st10"/>
			<path d="M2.16 204.09 L160.9 204.09" class="st10"/>
			<path d="M2.16 189.69 L0 196.89 L2.16 204.09" class="st10"/>
			<path d="M160.9 189.69 L158.74 196.89 L160.9 204.09" class="st10"/>
		</g>
		<g id="shape48-221" v:mID="48" v:groupContext="shape" transform="translate(76.5354,-18.1984)">
			<title>Bus X (Right filtered).48</title>
			<v:custProps>
				<v:cp v:nameU="slew" v:lbl="Slew" v:type="2" v:langID="1033" v:val="VT0(0.3):26"/>
				<v:cp v:nameU="left_shape" v:lbl="Left Shape" v:type="1" v:format="Convex;Concave;Open" v:langID="1033"
						v:val="VT4(Concave)"/>
				<v:cp v:nameU="right_shape" v:lbl="Right Shape" v:type="1" v:format="Convex;Concave;Open" v:langID="1033"
						v:val="VT4(Convex)"/>
			</v:custProps>
			<v:userDefs>
				<v:ud v:nameU="left_var" v:prompt="" v:val="VT0(-1):26"/>
				<v:ud v:nameU="right_var" v:prompt="" v:val="VT0(1):26"/>
				<v:ud v:nameU="slew_width" v:prompt="" v:val="VT0(0.03):1"/>
				<v:ud v:nameU="msvThemeColors" v:val="VT0(36):26"/>
				<v:ud v:nameU="msvThemeEffects" v:val="VT0(16):26"/>
			</v:userDefs>
			<g id="shadow48-222" v:groupContext="shadow" v:shadowOffsetX="1.44" v:shadowOffsetY="-1.44" v:shadowType="1"
					transform="matrix(1,0,0,1,1.44,1.44)" class="st6">
				<path d="M-2.16 204.09 L0 196.89 L-2.16 189.69 L143.15 189.69 L143.15 204.09 L-2.16 204.09 ZM143.15 189.69 L284.14
							 189.69 L286.3 196.89 L284.14 204.09 L143.15 204.09 L143.15 189.69 Z" class="st7"/>
				<path d="M-2.16 189.69 L284.14 189.69" class="st8"/>
				<path d="M-2.16 204.09 L284.14 204.09" class="st8"/>
				<path d="M-2.16 189.69 L0 196.89 L-2.16 204.09" class="st8"/>
				<path d="M284.14 189.69 L286.3 196.89 L284.14 204.09" class="st8"/>
			</g>
			<path d="M-2.16 204.09 L0 196.89 L-2.16 189.69 L143.15 189.69 L143.15 204.09 L-2.16 204.09 ZM143.15 189.69 L284.14 189.69
						 L286.3 196.89 L284.14 204.09 L143.15 204.09 L143.15 189.69 Z" class="st9"/>
			<path d="M-2.16 189.69 L284.14 189.69" class="st10"/>
			<path d="M-2.16 204.09 L284.14 204.09" class="st10"/>
			<path d="M-2.16 189.69 L0 196.89 L-2.16 204.09" class="st10"/>
			<path d="M284.14 189.69 L286.3 196.89 L284.14 204.09" class="st10"/>
		</g>
		<g id="shape49-234" v:mID="49" v:groupContext="shape" transform="translate(362.835,-18.4252)">
			<title>Bus.49</title>
			<desc>count</desc>
			<v:custProps>
				<v:cp v:nameU="slew" v:lbl="Slew" v:type="2" v:langID="1033" v:val="VT0(0.3):26"/>
				<v:cp v:nameU="left_shape" v:lbl="Left Shape" v:type="1" v:format="Convex;Concave;Open" v:langID="1033"
						v:val="VT4(Convex)"/>
				<v:cp v:nameU="right_shape" v:lbl="Right Shape" v:type="1" v:format="Convex;Concave;Open" v:langID="1033"
						v:val="VT4(Convex)"/>
			</v:custProps>
			<v:userDefs>
				<v:ud v:nameU="left_var" v:prompt="" v:val="VT0(1):26"/>
				<v:ud v:nameU="right_var" v:prompt="" v:val="VT0(1):26"/>
				<v:ud v:nameU="slew_width" v:prompt="" v:val="VT0(0.03):1"/>
			</v:userDefs>
			<v:textBlock v:margins="rect(0,0,0,0)" v:tabSpace="42.5197"/>
			<v:textRect cx="14.1732" cy="196.894" width="28.35" height="14.4"/>
			<path d="M2.16 204.09 L0 196.89 L2.16 189.69 L14.17 189.69 L14.17 204.09 L2.16 204.09 ZM14.17 189.69 L26.19 189.69 L28.35
						 196.89 L26.19 204.09 L14.17 204.09 L14.17 189.69 Z" class="st4"/>
			<path d="M2.16 189.69 L26.19 189.69" class="st1"/>
			<path d="M2.16 204.09 L26.19 204.09" class="st1"/>
			<path d="M2.16 189.69 L0 196.89 L2.16 204.09" class="st1"/>
			<path d="M26.19 189.69 L28.35 196.89 L26.19 204.09" class="st1"/>
			<text x="2.92" y="199.59" class="st5" v:langID="2052"><v:paragraph v:horizAlign="1"/><v:tabList/>count</text>		</g>
		<g id="shape50-241" v:mID="50" v:groupContext="shape" transform="translate(391.181,-18.1984)">
			<title>Bus X (Left Filtered).50</title>
			<v:custProps>
				<v:cp v:nameU="slew" v:lbl="Slew" v:type="2" v:langID="1033" v:val="VT0(0.3):26"/>
				<v:cp v:nameU="left_shape" v:lbl="Left Shape" v:type="1" v:format="Convex;Concave;Open" v:langID="1033"
						v:val="VT4(Convex)"/>
				<v:cp v:nameU="right_shape" v:lbl="Right Shape" v:type="1" v:format="Convex;Concave;Open" v:langID="1033"
						v:val="VT4(Concave)"/>
			</v:custProps>
			<v:userDefs>
				<v:ud v:nameU="left_var" v:prompt="" v:val="VT0(1):26"/>
				<v:ud v:nameU="right_var" v:prompt="" v:val="VT0(-1):26"/>
				<v:ud v:nameU="slew_width" v:prompt="" v:val="VT0(0.03):1"/>
				<v:ud v:nameU="msvThemeColors" v:val="VT0(36):26"/>
				<v:ud v:nameU="msvThemeEffects" v:val="VT0(16):26"/>
			</v:userDefs>
			<g id="shadow50-242" v:groupContext="shadow" v:shadowOffsetX="1.44" v:shadowOffsetY="-1.44" v:shadowType="1"
					transform="matrix(1,0,0,1,1.44,1.44)" class="st6">
				<path d="M2.16 204.09 L0 196.89 L2.16 189.69 L65.2 189.69 L65.2 204.09 L2.16 204.09 ZM65.2 189.69 L132.55 189.69
							 L130.39 196.89 L132.55 204.09 L65.2 204.09 L65.2 189.69 Z" class="st7"/>
				<path d="M2.16 189.69 L132.55 189.69" class="st8"/>
				<path d="M2.16 204.09 L132.55 204.09" class="st8"/>
				<path d="M2.16 189.69 L0 196.89 L2.16 204.09" class="st8"/>
				<path d="M132.55 189.69 L130.39 196.89 L132.55 204.09" class="st8"/>
			</g>
			<path d="M2.16 204.09 L0 196.89 L2.16 189.69 L65.2 189.69 L65.2 204.09 L2.16 204.09 ZM65.2 189.69 L132.55 189.69 L130.39
						 196.89 L132.55 204.09 L65.2 204.09 L65.2 189.69 Z" class="st9"/>
			<path d="M2.16 189.69 L132.55 189.69" class="st10"/>
			<path d="M2.16 204.09 L132.55 204.09" class="st10"/>
			<path d="M2.16 189.69 L0 196.89 L2.16 204.09" class="st10"/>
			<path d="M132.55 189.69 L130.39 196.89 L132.55 204.09" class="st10"/>
		</g>
		<g id="shape51-254" v:mID="51" v:groupContext="shape" transform="translate(4.25197,-18.4252)">
			<title>工作表.51</title>
			<desc>count</desc>
			<v:textBlock v:margins="rect(4,4,4,4)" v:tabSpace="42.5197"/>
			<v:textRect cx="36.8504" cy="198.425" width="73.71" height="11.3386"/>
			<rect x="0" y="192.756" width="73.7008" height="11.3386" class="st2"/>
			<text x="24.35" y="201.43" class="st3" v:langID="2052"><v:paragraph v:horizAlign="1"/><v:tabList/>count</text>		</g>
	</g>
</svg>
